<?xml version="1.0" encoding="iso-8859-1"?>
<!-- Generator: Adobe Illustrator 19.0.0, SVG Export Plug-In . SVG Version: 6.00 Build 0)  -->
<svg version="1.1" id="Layer_1" xmlns="http://www.w3.org/2000/svg" xmlns:xlink="http://www.w3.org/1999/xlink" x="0px" y="0px"
	 viewBox="0 0 512 512" style="enable-background:new 0 0 512 512;" xml:space="preserve">
<g>
	<polygon style="fill:#01579B;" points="148.897,113.778 244.423,113.778 244.423,18.963 148.897,18.963 119.059,66.37 	"/>
	<polygon style="fill:#01579B;" points="51.835,66.37 81.673,18.963 59.269,18.963 29.43,66.37 59.269,113.778 81.673,113.778 	"/>
	<polygon style="fill:#01579B;" points="96.654,66.37 126.492,18.963 104.088,18.963 74.249,66.37 104.088,113.778 126.492,113.778 
			"/>
</g>
<rect x="83.793" y="164.506" transform="matrix(-0.9512 0.3085 -0.3085 -0.9512 613.0269 478.5996)" style="fill:#FFECB3;" width="369.769" height="246.513"/>
<rect x="73.218" y="193.935" transform="matrix(-0.9851 0.1719 -0.1719 -0.9851 566.8926 585.2949)" style="fill:#FFC107;" width="369.773" height="246.515"/>
<rect x="234.941" style="fill:#263238;" width="9.481" height="512"/>
<path style="fill:#01579B;" d="M424.571,493.037H54.793c-3.707-3.698-5.774-5.784-9.481-9.481V237.037
	c3.707-3.698,5.774-5.784,9.481-9.481h369.778c7.405,7.405,11.558,11.558,18.963,18.963v227.556
	C436.129,481.479,431.976,485.632,424.571,493.037z"/>
<path style="fill:#263238;" d="M453.016,407.704H348.719c-7.405-7.405-11.558-11.558-18.963-18.963v-56.889
	c7.405-7.405,11.558-11.558,18.963-18.963h104.296c3.698,3.698,5.784,5.784,9.482,9.481v75.852
	C458.799,401.92,456.713,404.006,453.016,407.704z"/>
<circle style="fill:#01579B;" cx="396.127" cy="360.296" r="28.444"/>
<g>
	<path style="fill:#FFC107;" d="M178.053,350.815c0-3.205,0.303-6.324,0.74-9.406c-0.256,0-0.484-0.076-0.74-0.076
		c-26.178,0-47.407,21.229-47.407,47.407c0,26.178,21.229,47.407,47.407,47.407c17.626,0,32.825-9.737,40.998-24.007
		C194.987,402.176,178.053,378.482,178.053,350.815z"/>
	<path style="fill:#FFC107;" d="M244.423,284.444c-33.451,0-61.051,24.775-65.631,56.965c25.828,0.408,46.668,21.4,46.668,47.332
		c0,8.552-2.446,16.469-6.409,23.4c7.822,3.233,16.384,5.044,25.372,5.044c36.655,0,66.37-29.715,66.37-66.37
		S281.078,284.444,244.423,284.444z"/>
</g>
<g>
	<polygon style="fill:#F44336;" points="339.949,66.37 244.423,66.37 244.423,161.185 339.949,161.185 369.787,113.778 	"/>
	<polygon style="fill:#F44336;" points="437.011,113.778 407.173,161.185 429.577,161.185 459.416,113.778 429.577,66.37 
		407.173,66.37 	"/>
	<polygon style="fill:#F44336;" points="392.192,113.778 362.354,161.185 384.758,161.185 414.597,113.778 384.758,66.37 
		362.354,66.37 	"/>
</g>
<g>
</g>
<g>
</g>
<g>
</g>
<g>
</g>
<g>
</g>
<g>
</g>
<g>
</g>
<g>
</g>
<g>
</g>
<g>
</g>
<g>
</g>
<g>
</g>
<g>
</g>
<g>
</g>
<g>
</g>
</svg>
